HIERARCHY
ROOT mixamorig:Hips
{
	OFFSET 0.000000 201.639420 0.000000
	CHANNELS 6 Xposition Yposition Zposition Xrotation Yrotation Zrotation
	JOINT mixamorig:Spine
	{
		OFFSET 0.006200 19.524994 -2.481800
		CHANNELS 3 Xrotation Yrotation Zrotation
		JOINT mixamorig:Spine1
		{
			OFFSET -0.000900 22.835007 -2.825400
			CHANNELS 3 Xrotation Yrotation Zrotation
			JOINT mixamorig:Spine2
			{
				OFFSET -0.020600 26.552490 -3.193300
				CHANNELS 3 Xrotation Yrotation Zrotation
				JOINT mixamorig:Neck
				{
					OFFSET -0.060000 30.701813 1.352200
					CHANNELS 3 Xrotation Yrotation Zrotation
					JOINT mixamorig:Head
					{
						OFFSET -0.087200 22.547607 3.670900
						CHANNELS 3 Xrotation Yrotation Zrotation
						JOINT mixamorig:HeadTop_End
						{
							OFFSET -0.830600 40.355194 7.893500
							CHANNELS 3 Xrotation Yrotation Zrotation
							End Site
							{
								OFFSET 0.000000 30.592346 0.000000
							}
						}
						JOINT mixamorig:RightEye
						{
							OFFSET -6.302100 18.118591 16.197100
							CHANNELS 3 Xrotation Yrotation Zrotation
							End Site
							{
								OFFSET 0.000000 30.592346 0.000000
							}
						}
						JOINT mixamorig:LeftEye
						{
							OFFSET 6.741500 18.382690 16.401899
							CHANNELS 3 Xrotation Yrotation Zrotation
							End Site
							{
								OFFSET 0.000000 30.592346 0.000000
							}
						}
					}
				}
				JOINT mixamorig:LeftShoulder
				{
					OFFSET 11.924900 18.230499 1.425400
					CHANNELS 3 Xrotation Yrotation Zrotation
					JOINT mixamorig:LeftArm
					{
						OFFSET 25.435989 -0.697632 -5.229300
						CHANNELS 3 Xrotation Yrotation Zrotation
						JOINT mixamorig:LeftForeArm
						{
							OFFSET 54.684776 0.000000 0.000000
							CHANNELS 3 Xrotation Yrotation Zrotation
							JOINT mixamorig:LeftHand
							{
								OFFSET 55.098175 0.000000 0.000000
								CHANNELS 3 Xrotation Yrotation Zrotation
								JOINT mixamorig:LeftHandMiddle1
								{
									OFFSET 23.369751 0.000000 0.000000
									CHANNELS 3 Xrotation Yrotation Zrotation
									JOINT mixamorig:LeftHandMiddle2
									{
										OFFSET 6.378677 0.000000 0.000000
										CHANNELS 3 Xrotation Yrotation Zrotation
										JOINT mixamorig:LeftHandMiddle3
										{
											OFFSET 6.148331 0.000000 0.000000
											CHANNELS 3 Xrotation Yrotation Zrotation
											JOINT mixamorig:LeftHandMiddle4
											{
												OFFSET 6.582504 0.000000 0.000000
												CHANNELS 3 Xrotation Yrotation Zrotation
												End Site
												{
													OFFSET -1.168900 6.395691 1.028606
												}
											}
										}
									}
								}
								JOINT mixamorig:LeftHandThumb1
								{
									OFFSET 7.235672 -3.848206 5.434273
									CHANNELS 3 Xrotation Yrotation Zrotation
									JOINT mixamorig:LeftHandThumb2
									{
										OFFSET 6.568451 -3.792297 3.792300
										CHANNELS 3 Xrotation Yrotation Zrotation
										JOINT mixamorig:LeftHandThumb3
										{
											OFFSET 6.063080 -3.500519 3.500518
											CHANNELS 3 Xrotation Yrotation Zrotation
											JOINT mixamorig:LeftHandThumb4
											{
												OFFSET 4.793182 -2.767334 2.767349
												CHANNELS 3 Xrotation Yrotation Zrotation
												End Site
												{
													OFFSET 0.101639 6.054260 1.275483
												}
											}
										}
									}
								}
								JOINT mixamorig:LeftHandIndex1
								{
									OFFSET 23.101074 -0.309540 4.992809
									CHANNELS 3 Xrotation Yrotation Zrotation
									JOINT mixamorig:LeftHandIndex2
									{
										OFFSET 6.226883 0.000000 0.000000
										CHANNELS 3 Xrotation Yrotation Zrotation
										JOINT mixamorig:LeftHandIndex3
										{
											OFFSET 6.094330 0.000000 0.000000
											CHANNELS 3 Xrotation Yrotation Zrotation
											JOINT mixamorig:LeftHandIndex4
											{
												OFFSET 5.482605 0.000000 0.000000
												CHANNELS 3 Xrotation Yrotation Zrotation
												End Site
												{
													OFFSET -1.427902 5.233032 0.797164
												}
											}
										}
									}
								}
								JOINT mixamorig:LeftHandRing1
								{
									OFFSET 22.299240 0.021149 -3.964172
									CHANNELS 3 Xrotation Yrotation Zrotation
									JOINT mixamorig:LeftHandRing2
									{
										OFFSET 6.321869 0.000000 0.000000
										CHANNELS 3 Xrotation Yrotation Zrotation
										JOINT mixamorig:LeftHandRing3
										{
											OFFSET 5.899796 0.000000 0.000000
											CHANNELS 3 Xrotation Yrotation Zrotation
											JOINT mixamorig:LeftHandRing4
											{
												OFFSET 6.517899 0.000000 0.000000
												CHANNELS 3 Xrotation Yrotation Zrotation
												End Site
												{
													OFFSET -1.637299 6.232208 0.980890
												}
											}
										}
									}
								}
								JOINT mixamorig:LeftHandPinky1
								{
									OFFSET 20.463791 -0.302338 -8.562233
									CHANNELS 3 Xrotation Yrotation Zrotation
									JOINT mixamorig:LeftHandPinky2
									{
										OFFSET 6.908646 0.000000 0.000000
										CHANNELS 3 Xrotation Yrotation Zrotation
										JOINT mixamorig:LeftHandPinky3
										{
											OFFSET 4.622849 0.000000 0.000000
											CHANNELS 3 Xrotation Yrotation Zrotation
											JOINT mixamorig:LeftHandPinky4
											{
												OFFSET 5.216080 0.000000 0.000000
												CHANNELS 3 Xrotation Yrotation Zrotation
												End Site
												{
													OFFSET -0.606308 5.116241 0.814926
												}
											}
										}
									}
								}
							}
						}
					}
				}
				JOINT mixamorig:RightShoulder
				{
					OFFSET -12.001300 18.284088 1.348900
					CHANNELS 3 Xrotation Yrotation Zrotation
					JOINT mixamorig:RightArm
					{
						OFFSET -25.308500 -0.751312 -5.164599
						CHANNELS 3 Xrotation Yrotation Zrotation
						JOINT mixamorig:RightForeArm
						{
							OFFSET -54.684429 0.000000 0.000000
							CHANNELS 3 Xrotation Yrotation Zrotation
							JOINT mixamorig:RightHand
							{
								OFFSET -55.150291 0.000000 0.000000
								CHANNELS 3 Xrotation Yrotation Zrotation
								JOINT mixamorig:RightHandMiddle1
								{
									OFFSET -23.317566 0.000000 0.000000
									CHANNELS 3 Xrotation Yrotation Zrotation
									JOINT mixamorig:RightHandMiddle2
									{
										OFFSET -6.378403 0.000000 0.000000
										CHANNELS 3 Xrotation Yrotation Zrotation
										JOINT mixamorig:RightHandMiddle3
										{
											OFFSET -6.148193 0.000000 0.000000
											CHANNELS 3 Xrotation Yrotation Zrotation
											JOINT mixamorig:RightHandMiddle4
											{
												OFFSET -6.583389 0.000000 0.000000
												CHANNELS 3 Xrotation Yrotation Zrotation
												End Site
												{
													OFFSET 1.171692 6.395905 1.029786
												}
											}
										}
									}
								}
								JOINT mixamorig:RightHandThumb1
								{
									OFFSET -7.190521 -3.860474 5.435846
									CHANNELS 3 Xrotation Yrotation Zrotation
									JOINT mixamorig:RightHandThumb2
									{
										OFFSET -6.567429 -3.791718 3.791708
										CHANNELS 3 Xrotation Yrotation Zrotation
										JOINT mixamorig:RightHandThumb3
										{
											OFFSET -6.062469 -3.500153 3.500166
											CHANNELS 3 Xrotation Yrotation Zrotation
											JOINT mixamorig:RightHandThumb4
											{
												OFFSET -4.792618 -2.767029 2.767022
												CHANNELS 3 Xrotation Yrotation Zrotation
												End Site
												{
													OFFSET -0.100327 6.053253 1.276754
												}
											}
										}
									}
								}
								JOINT mixamorig:RightHandIndex1
								{
									OFFSET -23.048981 -0.310791 4.992554
									CHANNELS 3 Xrotation Yrotation Zrotation
									JOINT mixamorig:RightHandIndex2
									{
										OFFSET -6.227539 0.000000 0.000000
										CHANNELS 3 Xrotation Yrotation Zrotation
										JOINT mixamorig:RightHandIndex3
										{
											OFFSET -6.095047 0.000000 0.000000
											CHANNELS 3 Xrotation Yrotation Zrotation
											JOINT mixamorig:RightHandIndex4
											{
												OFFSET -5.484772 0.000000 0.000000
												CHANNELS 3 Xrotation Yrotation Zrotation
												End Site
												{
													OFFSET 1.420593 5.237305 0.797056
												}
											}
										}
									}
								}
								JOINT mixamorig:RightHandRing1
								{
									OFFSET -22.246323 0.020569 -3.963762
									CHANNELS 3 Xrotation Yrotation Zrotation
									JOINT mixamorig:RightHandRing2
									{
										OFFSET -6.322128 0.000000 0.000000
										CHANNELS 3 Xrotation Yrotation Zrotation
										JOINT mixamorig:RightHandRing3
										{
											OFFSET -5.900024 0.000000 0.000000
											CHANNELS 3 Xrotation Yrotation Zrotation
											JOINT mixamorig:RightHandRing4
											{
												OFFSET -6.518356 0.000000 0.000000
												CHANNELS 3 Xrotation Yrotation Zrotation
												End Site
												{
													OFFSET 1.636398 6.232697 0.982186
												}
											}
										}
									}
								}
								JOINT mixamorig:RightHandPinky1
								{
									OFFSET -20.411011 -0.303314 -8.561701
									CHANNELS 3 Xrotation Yrotation Zrotation
									JOINT mixamorig:RightHandPinky2
									{
										OFFSET -6.907349 0.000000 0.000000
										CHANNELS 3 Xrotation Yrotation Zrotation
										JOINT mixamorig:RightHandPinky3
										{
											OFFSET -4.623840 0.000000 0.000000
											CHANNELS 3 Xrotation Yrotation Zrotation
											JOINT mixamorig:RightHandPinky4
											{
												OFFSET -5.218353 0.000000 0.000000
												CHANNELS 3 Xrotation Yrotation Zrotation
												End Site
												{
													OFFSET 0.602097 5.118835 0.816273
												}
											}
										}
									}
								}
							}
						}
					}
				}
			}
		}
	}
	JOINT mixamorig:LeftUpLeg
	{
		OFFSET 18.168400 -13.561905 -0.039000
		CHANNELS 3 Xrotation Yrotation Zrotation
		JOINT mixamorig:LeftLeg
		{
			OFFSET 0.577358 -80.825211 -3.695000
			CHANNELS 3 Xrotation Yrotation Zrotation
			JOINT mixamorig:LeftFoot
			{
				OFFSET -0.577356 -83.370262 -6.520700
				CHANNELS 3 Xrotation Yrotation Zrotation
				JOINT mixamorig:LeftToeBase
				{
					OFFSET 0.750401 -20.798306 25.135401
					CHANNELS 3 Xrotation Yrotation Zrotation
					JOINT mixamorig:LeftToe_End
					{
						OFFSET -0.000500 0.001200 19.917799
						CHANNELS 3 Xrotation Yrotation Zrotation
						End Site
						{
							OFFSET 0.000000 19.917805 0.000000
						}
					}
				}
			}
		}
	}
	JOINT mixamorig:RightUpLeg
	{
		OFFSET -18.162500 -13.585098 -0.041000
		CHANNELS 3 Xrotation Yrotation Zrotation
		JOINT mixamorig:RightLeg
		{
			OFFSET -0.595024 -80.945297 -3.631900
			CHANNELS 3 Xrotation Yrotation Zrotation
			JOINT mixamorig:RightFoot
			{
				OFFSET 0.595024 -83.218193 -6.561200
				CHANNELS 3 Xrotation Yrotation Zrotation
				JOINT mixamorig:RightToeBase
				{
					OFFSET -0.753601 -20.807106 25.115000
					CHANNELS 3 Xrotation Yrotation Zrotation
					JOINT mixamorig:RightToe_End
					{
						OFFSET 0.000299 0.001700 19.918200
						CHANNELS 3 Xrotation Yrotation Zrotation
						End Site
						{
							OFFSET 0.000000 19.918203 0.000000
						}
					}
				}
			}
		}
	}
}
MOTION
Frames: 5
Frame Time: 0.033333
-137.854935 180.984207 -12.491302 20.849890 19.711195 -4.204804 21.291107 -11.435832 8.932690 -1.054468 -1.755678 1.914138 -1.004052 -1.661492 2.049356 -9.379733 1.093794 -1.085311 -25.374520 5.784382 -5.773564 0.000000 0.000000 0.000000 0.000000 0.000000 0.000000 0.000000 0.000000 0.000000 0.539744 -2.974847 10.362085 -37.652828 -16.200155 -18.189180 -0.000009 -78.673712 -0.000012 24.410790 -20.424093 27.378979 1.999971 -8.588074 14.172190 1.305081 4.038480 -35.805112 0.550361 2.702056 -23.021335 0.000001 -0.000000 0.000001 -1.450445 5.393436 10.146068 2.880031 4.462499 -0.097804 -0.631416 1.522982 2.614057 0.000004 0.000002 0.000001 4.498918 -10.331389 27.096185 2.939086 5.644535 -54.983778 1.050707 3.660931 -32.017803 -0.000003 -0.000003 -0.000003 -0.028325 -6.173586 -0.636088 0.275536 1.932037 -16.231680 0.082561 1.065151 -8.862783 -0.000000 -0.000002 -0.000000 0.437933 2.786394 -11.928938 -0.018109 -4.056640 -0.491196 0.006106 -0.290513 2.408045 -0.000001 -0.000003 0.000000 0.256791 -0.281172 -0.671587 -7.529667 -38.427525 31.762227 0.000002 56.590726 0.000005 -5.351531 2.308695 -12.387174 -0.090334 4.493146 1.416899 1.311357 -4.069041 35.713290 -0.277892 -2.655913 20.075410 -0.000001 0.000000 0.000002 -8.097273 7.512685 -1.594789 11.199747 -27.701116 -2.513038 -0.203537 -2.405275 -2.566492 0.000000 0.000001 -0.000001 0.922744 5.904269 -9.593323 2.820464 -5.594055 53.486112 0.830687 -3.300748 28.244929 -0.000000 0.000000 0.000001 -0.948617 2.808475 14.707426 0.292342 -1.998766 16.640701 -0.873338 -0.996021 7.212177 -0.000000 0.000001 -0.000002 -0.422643 -0.724517 25.941518 -0.000001 -0.000181 0.001473 0.008757 0.349604 -2.869959 -0.000001 0.000001 -0.000000 -16.273180 8.956567 -0.352459 52.733046 -3.732575 7.849938 6.223294 -5.476850 -12.628866 -20.847665 -0.444746 5.758487 -0.000002 0.000001 -0.000000 -65.991430 -1.346082 -18.207478 48.362107 2.171287 6.352689 6.443194 -6.098008 3.159672 -11.462814 -0.000000 -0.000002 -0.000000 -0.000000 0.000000 
-138.772980 182.249466 -15.311317 20.519061 22.236716 -6.273579 19.855870 -12.623820 10.105491 -1.630179 -2.227456 2.788743 -1.561619 -2.118570 2.940011 -8.749594 1.185830 -0.822422 -20.361415 6.138069 -5.281559 0.000000 0.000000 0.000000 0.000000 0.000000 0.000000 0.000000 0.000000 0.000000 0.660772 -3.744261 8.896395 -35.837842 -18.371870 -20.130697 -0.000030 -85.902709 0.000003 25.615533 -20.849210 25.556691 1.810752 -8.711453 12.463776 1.328042 4.070023 -36.129836 0.575990 2.761522 -23.559015 -0.000002 -0.000001 0.000003 -1.449378 5.020304 9.534477 3.079862 5.049620 0.047349 -0.550213 1.647199 2.582721 0.000002 0.000003 -0.000003 4.441957 -10.651427 25.723920 2.971149 5.666755 -55.309134 1.107176 3.749564 -32.891688 0.000001 0.000002 0.000003 -0.260015 -6.024280 -2.798324 0.283596 1.959461 -16.468809 0.085469 1.083698 -9.018244 0.000001 -0.000001 -0.000002 0.574870 3.090226 -14.543479 -0.018104 -4.056152 -0.495511 0.006762 -0.305814 2.535007 -0.000003 -0.000001 0.000001 0.276426 -0.227931 -0.241878 -4.699104 -40.013372 34.811914 0.000001 58.712053 -0.000008 -3.185541 4.677102 -12.496693 -0.488607 4.718831 5.856588 1.521740 -4.346005 38.580207 -0.220939 -3.321768 24.733577 0.000004 -0.000001 -0.000002 -7.543396 6.289817 -2.593741 9.997687 -24.231744 -2.314583 -0.720725 -1.235034 -2.412314 0.000000 0.000000 -0.000000 0.632188 6.341248 -5.709173 3.212218 -5.862480 57.409550 1.261182 -3.998488 34.999976 0.000002 -0.000000 -0.000001 -1.416384 2.755598 19.998910 0.345278 -2.167883 18.096800 -1.075463 -1.332339 9.366407 0.000000 0.000001 0.000002 -0.539224 -1.132967 32.099724 -0.000001 -0.000065 0.000589 0.007340 0.320048 -2.627133 -0.000000 0.000001 -0.000001 -12.221060 10.036935 -0.063258 48.973822 -6.363309 6.948584 6.342196 -4.186367 -10.686605 -17.763464 -0.553490 6.444010 -0.000000 -0.000000 0.000000 -62.290915 -0.684077 -15.745640 44.670520 -2.553520 4.206489 5.400356 -3.100017 5.398634 -9.720680 0.000001 0.000000 0.000000 -0.000000 0.000000 
-139.505753 183.039993 -18.318005 20.120366 24.675916 -8.169008 18.317988 -14.168550 11.112039 -1.362202 -2.507897 3.446806 -1.274101 -2.395304 3.584487 -8.277339 1.323889 -0.652281 -16.941719 6.776364 -4.967838 -0.000000 0.000000 -0.000000 -0.000000 0.000000 -0.000000 -0.000000 0.000000 -0.000000 0.656206 -3.847062 8.158571 -34.285992 -21.413929 -21.723890 0.000252 -92.746264 0.000217 27.227492 -20.880354 24.252441 1.714097 -8.905255 11.409400 1.333697 4.077766 -36.209647 0.579903 2.770480 -23.640082 0.000001 0.000001 -0.000000 -1.219648 5.209075 9.146928 2.940697 4.688021 0.000774 -0.646036 1.467909 2.592793 0.000004 -0.000002 0.000001 4.434029 -10.965741 24.760097 2.973621 5.668477 -55.334217 1.118167 3.766468 -33.059427 0.000000 -0.000001 -0.000002 -0.393942 -6.059902 -3.990295 0.286255 1.968427 -16.546528 0.085335 1.082894 -9.011481 -0.000001 -0.000003 0.000001 0.627541 3.163258 -15.884942 -0.018098 -4.056174 -0.495209 0.007114 -0.313796 2.601190 -0.000001 0.000001 0.000000 0.295025 -0.172024 0.171437 -2.021290 -41.210377 37.846447 -0.000003 60.340521 0.000005 -1.303877 6.571380 -12.702202 -0.672278 4.923601 7.515250 1.686021 -4.543700 40.699660 -0.088872 -3.894851 28.822237 0.000001 -0.000000 -0.000000 -7.436101 5.738959 -3.391178 10.064437 -24.803519 -2.578308 -0.672920 -1.216237 -2.311684 0.000000 -0.000000 0.000001 0.558564 6.716715 -4.614082 3.528006 -6.051725 60.451621 1.701901 -4.562025 40.899665 -0.000000 -0.000000 0.000002 -1.655534 2.731946 22.396755 0.385446 -2.287056 19.130204 -1.181561 -1.633832 11.287332 -0.000002 0.000001 0.000000 -0.579428 -1.375488 35.184712 -0.000003 -0.000037 0.000301 0.006025 0.289979 -2.380171 -0.000001 0.000000 -0.000001 -8.442471 10.848638 0.422917 45.116268 -8.086812 6.586268 5.653937 -3.322759 -9.324466 -15.559512 -0.759319 7.605933 0.000003 0.000003 -0.000000 -59.285045 -0.509263 -14.052585 41.428567 -5.693087 2.902392 4.453999 -1.859712 5.624041 -8.137729 0.000002 0.000001 -0.000000 0.000000 -0.000000 
-140.206955 183.215378 -21.452175 19.611623 26.974251 -9.783898 16.784186 -16.041423 11.812521 -0.180460 -2.584550 3.868364 -0.071525 -2.481016 3.958397 -8.026536 1.497944 -0.594837 -15.400693 7.613192 -4.836314 0.000000 -0.000001 0.000000 0.000000 -0.000001 0.000000 0.000000 -0.000001 0.000000 0.525343 -3.065290 8.115560 -33.121947 -25.728525 -22.769137 0.000052 -98.910360 0.000055 29.624474 -20.258857 23.823259 1.662562 -9.117684 10.711079 1.318699 4.057243 -35.998123 0.555757 2.714711 -23.135466 0.000001 0.000002 -0.000001 -0.898085 5.578857 8.854616 2.537336 3.575877 -0.209526 -1.037085 0.790116 2.677324 0.000000 -0.000001 -0.000002 4.393636 -11.233485 23.802145 2.937192 5.643221 -54.964540 1.069814 3.691288 -32.315940 -0.000000 0.000002 -0.000002 -0.450954 -6.228972 -4.400888 0.282841 1.956911 -16.446908 0.081606 1.059089 -8.811710 -0.000001 -0.000002 -0.000000 0.599041 3.051210 -16.060218 -0.018108 -4.056669 -0.491077 0.006870 -0.308291 2.555514 -0.000001 -0.000001 0.000000 0.312074 -0.116300 0.564961 0.424697 -42.007904 40.823607 -0.000009 61.245753 0.000013 0.035247 7.645333 -12.883541 -0.601880 5.294106 6.445159 1.778970 -4.649241 41.859518 0.066666 -4.308782 31.903496 -0.000001 -0.000000 -0.000000 -7.965464 6.339233 -3.721517 11.267969 -28.964172 -3.161626 -0.111786 -2.297208 -2.319092 0.000000 0.000000 0.000001 0.783263 7.215729 -6.175696 3.723432 -6.157792 62.289064 2.070553 -4.954330 45.341671 -0.000001 0.000000 0.000002 -1.669820 2.918914 21.854884 0.406133 -2.345819 19.642111 -1.195584 -1.853301 12.734795 -0.000001 -0.000000 0.000002 -0.589560 -1.347990 35.053190 0.000001 -0.000035 0.000258 0.005252 0.270711 -2.221883 -0.000003 -0.000001 0.000003 -5.435140 11.417259 1.093021 41.641522 -8.441791 6.777914 4.088911 -3.132485 -8.361534 -16.581020 -1.241053 9.054975 -0.000000 -0.000001 0.000001 -57.313162 -0.747915 -13.367146 39.236845 -6.767574 2.544174 4.688193 -2.802461 5.417840 -7.194391 0.000004 -0.000003 -0.000000 0.000001 -0.000000 
-141.035522 182.726624 -24.752945 18.941120 29.031279 -10.911905 15.883721 -17.714502 11.960139 1.173912 -2.609885 4.124733 1.300979 -2.518503 4.155831 -7.954703 1.613592 -0.629888 -14.983970 8.099239 -4.718203 -0.000000 -0.000001 0.000000 -0.000000 -0.000001 0.000000 -0.000000 -0.000001 0.000000 0.304407 -1.675089 8.023344 -32.304128 -31.746504 -23.173003 -0.000018 -104.008782 -0.000026 32.388211 -19.365832 24.293987 1.501615 -9.157055 9.516193 1.289441 4.016774 -35.582584 0.508587 2.601654 -22.118420 -0.000003 -0.000002 -0.000001 -0.773677 5.441655 8.427983 2.111193 2.384206 -0.457722 -1.748475 -0.434924 2.843744 -0.000001 0.000001 0.000000 4.119815 -11.324159 22.018568 2.866648 5.593346 -54.244054 0.973353 3.534487 -30.785315 0.000001 0.000001 -0.000000 -0.518147 -6.274258 -4.946953 0.276364 1.934877 -16.256386 0.074956 1.015244 -8.444097 -0.000001 -0.000001 0.000001 0.581534 2.989001 -16.089769 -0.018109 -4.056680 -0.491024 0.006056 -0.289500 2.399617 -0.000001 0.000001 0.000001 0.326931 -0.068097 0.938601 2.712055 -42.508273 43.751542 -0.000006 61.236054 0.000001 0.663871 7.730666 -12.914007 -0.425393 5.864333 4.379694 1.814018 -4.687926 42.290052 0.179297 -4.552174 33.769528 0.000000 0.000000 0.000001 -8.997835 8.021243 -3.365231 12.845801 -34.154839 -3.672172 0.615363 -3.837159 -2.451200 0.000000 0.000001 0.000002 1.148579 7.875508 -8.504345 3.812642 -6.203559 63.117642 2.311943 -5.180857 48.073952 -0.000000 0.000000 -0.000000 -1.620899 3.343823 19.993919 0.411796 -2.361608 19.780004 -1.174544 -1.972741 13.560130 -0.000002 0.000001 0.000000 -0.639887 -1.093472 33.276132 0.000001 -0.000062 0.000511 0.005353 0.273376 -2.243796 -0.000001 0.000000 -0.000006 -3.300227 11.933230 1.879455 38.671486 -8.141578 6.951983 1.988508 -2.753449 -7.131097 -23.189495 -1.472819 6.799101 -0.000000 0.000001 -0.000000 -56.440247 -1.035429 -13.373886 38.408742 -6.700911 2.570608 5.960194 -5.265719 5.553513 -6.501024 -0.000004 -0.000002 0.000000 0.000000 -0.000000 
